# xmcd
#
# Track frame offsets:
#	150
#	14828
#	27846
#	44148
#	61578
#	76870
#	93776
#	104870
#	119732
#	136941
#	153923
#	167149
#	182841
#	198659
#	214370
#	228322
#	244313
#
# Disc length: 3466 seconds
#
# Revision: 1
# Processed by: cddbd v1.5.2PL0 Copyright (c) Steve Scherf et al.
# Submitted via: audiograbber 1.83.01
#
DISCID=f50d8811
DTITLE=George Strait - Charbusters Karaoke Disk 2
DYEAR=1900
DGENRE=Country
TTITLE0=Love Without End, Amen 
TTITLE1=If I Know Me
TTITLE2=Drinking Champagne
TTITLE3=I've Come To Expect It From You
TTITLE4=Gone As A Girl Can Get
TTITLE5=I Cross My Heart
TTITLE6=Heartland
TTITLE7=Easy Come, Easy Go
TTITLE8=Adalida
TTITLE9=The Chill Of An Early Fall
TTITLE10=When Did You Stop Loving Me
TTITLE11=The Man In Love With You
TTITLE12=You Can't Make A Heart Love Somebody
TTITLE13=Check Yes Or No
TTITLE14=Out Of The Blue Clear Sky
TTITLE15=Lead On
TTITLE16=Carried Away
EXTD=
EXTT0=
EXTT1=
EXTT2=
EXTT3=
EXTT4=
EXTT5=
EXTT6=
EXTT7=
EXTT8=
EXTT9=
EXTT10=
EXTT11=
EXTT12=
EXTT13=
EXTT14=
EXTT15=
EXTT16=
PLAYORDER=
